<?xml version="1.0" encoding="iso-8859-1"?>
<!-- Uploaded to: SVG Repo, www.svgrepo.com, Generator: SVG Repo Mixer Tools -->
<svg fill="#f5f5f5" height="18px" width="18px" version="1.1" id="Layer_1" xmlns="http://www.w3.org/2000/svg" xmlns:xlink="http://www.w3.org/1999/xlink" 
	 viewBox="0 0 512 512" xml:space="preserve">
<g>
	<g>
		<path d="M150.261,0c-27.62,0-50.087,22.468-50.087,50.087c0,27.619,22.467,50.087,50.087,50.087
			c27.619,0,50.087-22.468,50.087-50.087C200.348,22.468,177.88,0,150.261,0z M150.261,66.783c-9.22,0-16.696-7.475-16.696-16.696
			s7.475-16.696,16.696-16.696s16.696,7.475,16.696,16.696S159.481,66.783,150.261,66.783z"/>
	</g>
</g>
<g>
	<g>
		<circle cx="250.435" cy="83.478" r="16.696"/>
	</g>
</g>
<g>
	<g>
		<circle cx="294.957" cy="27.826" r="16.696"/>
	</g>
</g>
<g>
	<g>
		<path d="M441.813,166.957h20.1c9.22,0,16.696-7.475,16.696-16.696s-7.475-16.696-16.696-16.696h-47.066h-51.745h-5.413
			l71.51-71.509c6.52-6.52,6.52-17.091,0-23.611c-6.52-6.52-17.091-6.52-23.611,0l-95.123,95.12H148.9H97.154H50.087
			c-9.22,0-16.696,7.475-16.696,16.696s7.475,16.696,16.696,16.696h20.1c-23.223,35.122-36.796,77.174-36.796,122.435
			c0,45.963,13.945,88.663,37.816,124.129c-21.694,5.497-37.816,24.989-37.816,48.393c0,27.662,22.423,50.087,50.087,50.087
			c23.404,0,42.897-16.121,48.394-37.816C167.337,498.055,210.036,512,256,512c45.962,0,88.657-13.944,124.122-37.811
			C385.619,495.882,405.111,512,428.514,512c27.664,0,50.087-22.424,50.087-50.087c0-23.402-16.117-42.891-37.809-48.392
			c23.871-35.465,37.817-78.166,37.817-124.13C478.609,244.13,465.035,202.079,441.813,166.957z M83.478,478.609
			c-9.207,0-16.696-7.49-16.696-16.696s7.489-16.696,16.696-16.696c9.206,0,16.696,7.49,16.696,16.696
			S92.684,478.609,83.478,478.609z M445.206,461.913c0,9.206-7.49,16.696-16.696,16.696c-9.206,0-16.696-7.49-16.696-16.696
			s7.49-16.696,16.696-16.696C437.717,445.217,445.206,452.707,445.206,461.913z M256,478.609
			c-104.337,0-189.217-84.881-189.217-189.217c0-46.699,17.089-89.415,45.242-122.435h287.951
			c28.153,33.02,45.242,75.736,45.242,122.435C445.217,393.728,360.337,478.609,256,478.609z"/>
	</g>
</g>
<g>
	<g>
		<path d="M395.734,278.309c-9.435-0.728-17.016,6.717-17.424,15.934c-2.815,63.163-54.521,115.158-117.718,117.495
			c-9.212,0.337-16.407,8.087-16.066,17.305c0.332,9.001,7.739,16.077,16.674,16.077c0.207,0,0.419,0,0.63-0.011
			c80.435-2.979,146.255-68.973,149.837-149.386C412.075,286.516,404.945,278.712,395.734,278.309z"/>
	</g>
</g>
</svg>